<!DOCTYPE svg  PUBLIC '-//W3C//DTD SVG 1.1//EN'  'http://www.w3.org/Graphics/SVG/1.1/DTD/svg11.dtd'>
<svg width="460.8pt" height="345.6pt" version="1.1" viewBox="0 0 460.8 345.6" xmlns="http://www.w3.org/2000/svg" xmlns:xlink="http://www.w3.org/1999/xlink"><defs><style type="text/css">*{stroke-linecap:butt;stroke-linejoin:round;}</style></defs><path d="m0 345.6h460.8v-345.6h-460.8z" fill="#fff"/><g stroke="#f00" stroke-linecap="round" stroke-width="2"><path d="m341.42 220.98q-0.16084 1.4449-0.074305 0.66755" clip-path="url(#a)" fill="none"/><path d="m343.78 217.89-2.4302 3.7542-1.5452-4.1967 3.9754 0.44251z" clip-path="url(#a)" fill="#f00"/></g><g stroke="#d80027" stroke-linecap="round" stroke-width="1.6902"><path d="m340.32 230.89q0.16084-1.4449 0.11262-1.0118" clip-path="url(#a)" fill="none"/><path d="m338 233.63 2.4302-3.7542 1.5452 4.1967-3.9754-0.44251z" clip-path="url(#a)" fill="#d80027"/></g><g stroke="#d80027" stroke-linecap="round" stroke-width="1.6902"><path d="m340.32 230.89q-1.2528 0.65412-0.83043 0.4336" clip-path="url(#a)" fill="none"/><path d="m343.96 231.25-4.4714 0.078523 2.62-3.6243 1.8514 3.5457z" clip-path="url(#a)" fill="#d80027"/></g><g stroke="#4d00b2" stroke-linecap="round" stroke-width=".15052"><path d="m340.32 230.89q-7.1301-3.0007-14.105-5.9361" clip-path="url(#a)" fill="none"/><path d="m329.12 228.35-2.911-3.395 4.4626-0.29182-1.5516 3.6868z" clip-path="url(#a)" fill="#4d00b2"/></g><g stroke="#7a0085" stroke-linecap="round" stroke-width=".23856"><path d="m340.32 230.89q7.4629 5.2357 14.707 10.318" clip-path="url(#a)" fill="none"/><path d="m352.9 237.28 2.1259 3.9346-4.4232-0.66004 2.2973-3.2745z" clip-path="url(#a)" fill="#7a0085"/></g><g stroke="#4d00b2" stroke-linecap="round" stroke-width=".15052"><path d="m331.55 235.47q2.9473-4.3258 5.7999-8.5126" clip-path="url(#a)" fill="none"/><path d="m333.44 229.14 3.9051-2.1795-0.59941 4.4318-3.3057-2.2522z" clip-path="url(#a)" fill="#4d00b2"/></g><g stroke="#b2004d" stroke-linecap="round" stroke-width=".34948"><path d="m331.55 235.47q1.2528-0.65412 2.1592-1.1274" clip-path="url(#a)" fill="none"/><path d="m329.24 234.42 4.4714-0.078523-2.62 3.6243-1.8514-3.5457z" clip-path="url(#a)" fill="#b2004d"/></g><g stroke="#7a0085" stroke-linecap="round" stroke-width=".23856"><path d="m331.55 235.47q-2.7503-0.1262-5.2342-0.24018" clip-path="url(#a)" fill="none"/><path d="m330.22 237.41-3.9041-2.1812 4.0875-1.8145-0.18335 3.9958z" clip-path="url(#a)" fill="#7a0085"/></g><g stroke="#7a0085" stroke-linecap="round" stroke-width=".23856"><path d="m322.35 139.43q-0.27225 5.0815-0.53024 9.8966" clip-path="url(#a)" fill="none"/><path d="m324.03 145.44-2.2111 3.8873-1.7831-4.1013 3.9943 0.214z" clip-path="url(#a)" fill="#7a0085"/></g><g stroke="#4d00b2" stroke-linecap="round" stroke-width=".15052"><path d="m321.42 156.65q0.27225-5.0815 0.5355-9.9949" clip-path="url(#a)" fill="none"/><path d="m319.75 150.54 2.2111-3.8873 1.7831 4.1013-3.9943-0.214z" clip-path="url(#a)" fill="#4d00b2"/></g><g stroke="#4d00b2" stroke-linecap="round" stroke-width=".15052"><path d="m321.42 156.65q-42.098 29.139-84.059 58.182" clip-path="url(#a)" fill="none"/><path d="m241.79 214.2-4.4272 0.63202 2.1507-3.921 2.2765 3.289z" clip-path="url(#a)" fill="#4d00b2"/></g><g stroke="#4d00b2" stroke-linecap="round" stroke-width=".15052"><path d="m321.42 156.65q42.655-27.084 85.167-54.079" clip-path="url(#a)" fill="none"/><path d="m402.14 103.03 4.4489-0.45577-2.3047 3.8325-2.1442-3.3768z" clip-path="url(#a)" fill="#4d00b2"/></g><g stroke="#4d00b2" stroke-linecap="round" stroke-width=".15052"><path d="m318.98 234.89q7.1928-1.3495 14.22-2.668" clip-path="url(#a)" fill="none"/><path d="m328.9 231 4.3002 1.2281-3.5626 2.7033-0.73762-3.9314z" clip-path="url(#a)" fill="#4d00b2"/></g><g stroke="#7a0085" stroke-linecap="round" stroke-width=".23856"><path d="m318.98 234.89q2.7503 0.1262 5.2342 0.24018" clip-path="url(#a)" fill="none"/><path d="m320.31 232.95 3.9041 2.1812-4.0875 1.8145 0.18335-3.9958z" clip-path="url(#a)" fill="#7a0085"/></g><g stroke="#7a0085" stroke-linecap="round" stroke-width=".23856"><path d="m318.98 234.89q0.12519-2.8397 0.23863-5.4129" clip-path="url(#a)" fill="none"/><path d="m317.05 233.39 2.1742-3.908 1.8219 4.0842-3.9961-0.17617z" clip-path="url(#a)" fill="#7a0085"/></g><g stroke="#7a0085" stroke-linecap="round" stroke-width=".23856"><path d="m319.54 222.15q7.1301 3.0007 14.014 5.8979" clip-path="url(#a)" fill="none"/><path d="m330.65 224.65 2.911 3.395-4.4626 0.29182 1.5516-3.6868z" clip-path="url(#a)" fill="#7a0085"/></g><g stroke="#4d00b2" stroke-linecap="round" stroke-width=".15052"><path d="m319.54 222.15q-0.12519 2.8397-0.24296 5.5112" clip-path="url(#a)" fill="none"/><path d="m321.47 223.75-2.1742 3.908-1.8219-4.0842 3.9961 0.17617z" clip-path="url(#a)" fill="#4d00b2"/></g><g stroke="#4d00b2" stroke-linecap="round" stroke-width=".15052"><path d="m361.03 245.42q-7.4629-5.2357-14.788-10.375" clip-path="url(#a)" fill="none"/><path d="m348.37 238.98-2.1259-3.9346 4.4232 0.66004-2.2973 3.2745z" clip-path="url(#a)" fill="#4d00b2"/></g><g stroke="#4d00b2" stroke-linecap="round" stroke-width=".15052"><path d="m361.03 245.42q-4.6829 3.4228-9.23 6.7462" clip-path="url(#a)" fill="none"/><path d="m356.21 251.42-4.4095 0.74566 2.0492-3.975 2.3603 3.2294z" clip-path="url(#a)" fill="#4d00b2"/></g><g stroke="#7a0085" stroke-linecap="round" stroke-width=".23856"><path d="m406.57 311.59q3.9775 2.0368 7.7177 3.9521" clip-path="url(#a)" fill="none"/><path d="m411.63 311.93 2.6487 3.6034-4.4719-0.043021 1.8232-3.5603z" clip-path="url(#a)" fill="#7a0085"/></g><g stroke="#4d00b2" stroke-linecap="round" stroke-width=".15052"><path d="m420.81 318.88q-3.9775-2.0368-7.8053-3.997" clip-path="url(#a)" fill="none"/><path d="m415.66 318.49-2.6487-3.6034 4.4719 0.043021-1.8232 3.5603z" clip-path="url(#a)" fill="#4d00b2"/></g><g stroke="#4d00b2" stroke-linecap="round" stroke-width=".15052"><path d="m52.708 199.23q-4.2091 5.4859-8.3158 10.838" clip-path="url(#a)" fill="none"/><path d="m48.414 208.11-4.0217 1.9561 0.84816-4.391 3.1735 2.4349z" clip-path="url(#a)" fill="#4d00b2"/></g><g stroke="#4d00b2" stroke-linecap="round" stroke-width=".15052"><path d="m231.41 218.95q42.098-29.139 84.059-58.182" clip-path="url(#a)" fill="none"/><path d="m311.04 161.4 4.4272-0.63202-2.1507 3.921-2.2765-3.289z" clip-path="url(#a)" fill="#4d00b2"/></g><g stroke="#4d00b2" stroke-linecap="round" stroke-width=".15052"><path d="m231.41 218.95q-85.839-9.4729-171.51-18.927" clip-path="url(#a)" fill="none"/><path d="m63.659 202.45-3.7565-2.4267 4.1952-1.5492-0.43877 3.9759z" clip-path="url(#a)" fill="#4d00b2"/></g><g stroke="#4d00b2" stroke-linecap="round" stroke-width=".15052"><path d="m231.41 218.95q67.32 31.928 134.49 63.785" clip-path="url(#a)" fill="none"/><path d="m363.14 279.22 2.7571 3.5212-4.4712 0.092964 1.7141-3.6141z" clip-path="url(#a)" fill="#4d00b2"/></g><g stroke="#4d00b2" stroke-linecap="round" stroke-width=".15052"><path d="m372.44 285.84q14.238 10.742 28.341 21.383" clip-path="url(#a)" fill="none"/><path d="m398.8 303.22 1.9886 4.0057-4.3977-0.81258 2.4091-3.1931z" clip-path="url(#a)" fill="#4d00b2"/></g><g stroke="#4d00b2" stroke-linecap="round" stroke-width=".15052"><path d="m372.44 285.84q-10.878-12.075-21.643-24.025" clip-path="url(#a)" fill="none"/><path d="m351.99 266.13-1.1913-4.3105 4.1632 1.6333-2.9719 2.6773z" clip-path="url(#a)" fill="#4d00b2"/></g><g stroke="#4d00b2" stroke-linecap="round" stroke-width=".15052"><path d="m257.24 218.22q10.878 7.2024 21.615 14.312" clip-path="url(#a)" fill="none"/><path d="m276.63 228.65 2.231 3.8759-4.4393-0.54074 2.2083-3.3352z" clip-path="url(#a)" fill="#4d00b2"/></g><g stroke="#4d00b2" stroke-linecap="round" stroke-width=".15052"><path d="m284.89 236.53q-23.384-7.6836-46.608-15.315" clip-path="url(#a)" fill="none"/><path d="m241.46 224.36-3.1758-3.1487 4.4244-0.65138-1.2487 3.8001z" clip-path="url(#a)" fill="#4d00b2"/></g><g stroke="#4d00b2" stroke-linecap="round" stroke-width=".15052"><path d="m284.89 236.53q-4.3869-8.2236-8.6945-16.299" clip-path="url(#a)" fill="none"/><path d="m276.32 224.7-0.11804-4.4706 3.6473 2.5879-3.5292 1.8827z" clip-path="url(#a)" fill="#4d00b2"/></g><g stroke="#4d00b2" stroke-linecap="round" stroke-width=".15052"><path d="m284.89 236.53q27.172 8.8613 54.184 17.67" clip-path="url(#a)" fill="none"/><path d="m335.9 251.06 3.1828 3.1416-4.423 0.66126 1.2402-3.8029z" clip-path="url(#a)" fill="#4d00b2"/></g><g stroke="#4d00b2" stroke-linecap="round" stroke-width=".15052"><path d="m272.79 213.84q4.3868 8.2236 8.6945 16.299" clip-path="url(#a)" fill="none"/><path d="m281.37 225.67 0.11804 4.4706-3.6473-2.5879 3.5292-1.8827z" clip-path="url(#a)" fill="#4d00b2"/></g><g stroke="#4d00b2" stroke-linecap="round" stroke-width=".15052"><path d="m345.96 256.44q-2.0581-9.3237-4.08-18.483" clip-path="url(#a)" fill="none"/><path d="m340.79 242.29 1.0908-4.3371 2.8152 3.4749-3.906 0.86221z" clip-path="url(#a)" fill="#4d00b2"/></g><defs><path id="b" d="m0 7.0711c1.8753 0 3.674-0.74505 5-2.0711 1.326-1.326 2.0711-3.1247 2.0711-5s-0.74505-3.674-2.0711-5c-1.326-1.326-3.1247-2.0711-5-2.0711s-3.674 0.74505-5 2.0711c-1.326 1.326-2.0711 3.1247-2.0711 5s0.74505 3.674 2.0711 5c1.326 1.326 3.1247 2.0711 5 2.0711z"/></defs><g clip-path="url(#a)"><use x="341.42238" y="220.977889" fill="#4ec3ed" stroke="#4ec3ed" xlink:href="#b"/></g><g clip-path="url(#a)"><use x="340.318875" y="230.891609" fill="#4ec3ed" stroke="#4ec3ed" xlink:href="#b"/></g><g clip-path="url(#a)"><use x="331.5474" y="235.471598" fill="#4ec3ed" stroke="#4ec3ed" xlink:href="#b"/></g><g clip-path="url(#a)"><use x="322.347441" y="139.427404" fill="#4ec3ed" stroke="#4ec3ed" xlink:href="#b"/></g><g clip-path="url(#a)"><use x="321.424688" y="156.650112" fill="#4ec3ed" stroke="#4ec3ed" xlink:href="#b"/></g><g clip-path="url(#a)"><use x="318.981514" y="234.894997" fill="#4ec3ed" stroke="#4ec3ed" xlink:href="#b"/></g><g clip-path="url(#a)"><use x="319.543456" y="222.148334" fill="#4ec3ed" stroke="#4ec3ed" xlink:href="#b"/></g><g clip-path="url(#a)"><use x="361.032418" y="245.423607" fill="#4ec3ed" stroke="#4ec3ed" xlink:href="#b"/></g><g clip-path="url(#a)"><use x="406.565772" y="311.585493" fill="#4ec3ed" stroke="#4ec3ed" xlink:href="#b"/></g><g clip-path="url(#a)"><use x="420.813223" y="318.881378" fill="#4ec3ed" stroke="#4ec3ed" xlink:href="#b"/></g><g clip-path="url(#a)"><use x="52.708112" y="199.231994" fill="#4ec3ed" stroke="#4ec3ed" xlink:href="#b"/></g><g clip-path="url(#a)"><use x="39.986777" y="215.812193" fill="#4ec3ed" stroke="#4ec3ed" xlink:href="#b"/></g><g clip-path="url(#a)"><use x="231.41239" y="218.953364" fill="#4ec3ed" stroke="#4ec3ed" xlink:href="#b"/></g><g clip-path="url(#a)"><use x="372.44423" y="285.841592" fill="#4ec3ed" stroke="#4ec3ed" xlink:href="#b"/></g><g clip-path="url(#a)"><use x="412.703282" y="98.690763" fill="#4ec3ed" stroke="#4ec3ed" xlink:href="#b"/></g><g clip-path="url(#a)"><use x="257.242154" y="218.217557" fill="#4ec3ed" stroke="#4ec3ed" xlink:href="#b"/></g><g clip-path="url(#a)"><use x="284.894411" y="236.527022" fill="#4ec3ed" stroke="#4ec3ed" xlink:href="#b"/></g><g clip-path="url(#a)"><use x="272.792347" y="213.840458" fill="#4ec3ed" stroke="#4ec3ed" xlink:href="#b"/></g><g clip-path="url(#a)"><use x="345.95867" y="256.441035" fill="#4ec3ed" stroke="#4ec3ed" xlink:href="#b"/></g><g clip-path="url(#a)"><use x="226.033344" y="19.039924" fill="#4ec3ed" stroke="#4ec3ed" xlink:href="#b"/></g><g clip-path="url(#a)"><defs><path id="c" d="m12.406 8.2969h16.109v55.625l-17.531-3.5156v8.9844l17.438 3.5156h9.8594v-64.609h16.109v-8.2969h-41.984z"/></defs><g transform="translate(339.51 222.63) scale(.06 -.06)"><use xlink:href="#c"/></g></g><g clip-path="url(#a)"><defs><path id="d" d="m19.188 8.2969h34.422v-8.2969h-46.281v8.2969q5.6094 5.8125 15.297 15.594 9.7031 9.7969 12.188 12.641 4.7344 5.3125 6.6094 9 1.8906 3.6875 1.8906 7.25 0 5.8125-4.0781 9.4688-4.0781 3.6719-10.625 3.6719-4.6406 0-9.7969-1.6094-5.1406-1.6094-11-4.8906v9.9688q5.9531 2.3906 11.125 3.6094 5.1875 1.2188 9.4844 1.2188 11.328 0 18.062-5.6719 6.7344-5.6562 6.7344-15.125 0-4.5-1.6875-8.5312-1.6719-4.0156-6.125-9.4844-1.2188-1.4219-7.7656-8.1875-6.5312-6.7656-18.453-18.922z"/></defs><g transform="translate(338.41 232.55) scale(.06 -.06)"><use xlink:href="#d"/></g></g><g clip-path="url(#a)"><defs><path id="k" d="m40.578 39.312q7.0781-1.5156 11.047-6.3125 3.9844-4.7812 3.9844-11.812 0-10.781-7.4219-16.703-7.4219-5.9062-21.094-5.9062-4.5781 0-9.4375 0.90625t-10.031 2.7188v9.5156q4.0938-2.3906 8.9688-3.6094 4.8906-1.2188 10.219-1.2188 9.2656 0 14.125 3.6562t4.8594 10.641q0 6.4531-4.5156 10.078-4.5156 3.6406-12.562 3.6406h-8.5v8.1094h8.8906q7.2656 0 11.125 2.9062t3.8594 8.375q0 5.6094-3.9844 8.6094-3.9688 3.0156-11.391 3.0156-4.0625 0-8.7031-0.89062-4.6406-0.875-10.203-2.7188v8.7812q5.625 1.5625 10.531 2.3438t9.25 0.78125q11.234 0 17.766-5.1094 6.5469-5.0938 6.5469-13.781 0-6.0625-3.4688-10.234t-9.8594-5.7812z"/></defs><g transform="translate(329.64 237.13) scale(.06 -.06)"><use xlink:href="#k"/></g></g><g clip-path="url(#a)"><defs><path id="j" d="m37.797 64.312-24.906-38.922h24.906zm-2.5938 8.5938h12.406v-47.516h10.406v-8.2031h-10.406v-17.188h-9.8125v17.188h-32.906v9.5156z"/></defs><g transform="translate(320.44 141.08) scale(.06 -.06)"><use xlink:href="#j"/></g></g><g clip-path="url(#a)"><defs><path id="i" d="m10.797 72.906h38.719v-8.3125h-29.688v-17.859q2.1406 0.73438 4.2812 1.0938 2.1562 0.35938 4.3125 0.35938 12.203 0 19.328-6.6875 7.1406-6.6875 7.1406-18.109 0-11.766-7.3281-18.297-7.3281-6.5156-20.656-6.5156-4.5938 0-9.3594 0.78125-4.75 0.78125-9.8281 2.3438v9.9219q4.3906-2.3906 9.0781-3.5625t9.9062-1.1719q8.4531 0 13.375 4.4375 4.9375 4.4375 4.9375 12.062 0 7.6094-4.9375 12.047-4.9219 4.4531-13.375 4.4531-3.9531 0-7.8906-0.875-3.9219-0.875-8.0156-2.7344z"/></defs><g transform="translate(319.52 158.31) scale(.06 -.06)"><use xlink:href="#i"/></g></g><g clip-path="url(#a)"><defs><path id="h" d="m33.016 40.375q-6.6406 0-10.531-4.5469-3.875-4.5312-3.875-12.438 0-7.8594 3.875-12.438 3.8906-4.5625 10.531-4.5625t10.516 4.5625q3.875 4.5781 3.875 12.438 0 7.9062-3.875 12.438-3.875 4.5469-10.516 4.5469zm19.578 30.922v-8.9844q-3.7188 1.75-7.5 2.6719-3.7812 0.9375-7.5 0.9375-9.7656 0-14.922-6.5938-5.1406-6.5938-5.875-19.922 2.875 4.25 7.2188 6.5156 4.3594 2.2656 9.5781 2.2656 10.984 0 17.359-6.6719 6.375-6.6562 6.375-18.125 0-11.234-6.6406-18.031-6.6406-6.7812-17.672-6.7812-12.656 0-19.344 9.6875-6.6875 9.7031-6.6875 28.109 0 17.281 8.2031 27.562t22.016 10.281q3.7188 0 7.5-0.73438t7.8906-2.1875z"/></defs><g transform="translate(317.07 236.55) scale(.06 -.06)"><use xlink:href="#h"/></g></g><g clip-path="url(#a)"><defs><path id="g" d="m8.2031 72.906h46.875v-4.2031l-26.469-68.703h-10.297l24.906 64.594h-35.016z"/></defs><g transform="translate(317.63 223.8) scale(.06 -.06)"><use xlink:href="#g"/></g></g><g clip-path="url(#a)"><defs><path id="f" d="m31.781 34.625q-7.0312 0-11.062-3.7656-4.0156-3.7656-4.0156-10.344 0-6.5938 4.0156-10.359 4.0312-3.7656 11.062-3.7656t11.078 3.7812q4.0625 3.7969 4.0625 10.344 0 6.5781-4.0312 10.344-4.0156 3.7656-11.109 3.7656zm-9.8594 4.1875q-6.3438 1.5625-9.8906 5.9062-3.5312 4.3594-3.5312 10.609 0 8.7344 6.2188 13.812 6.2344 5.0781 17.062 5.0781 10.891 0 17.094-5.0781t6.2031-13.812q0-6.25-3.5469-10.609-3.5312-4.3438-9.8281-5.9062 7.125-1.6562 11.094-6.5 3.9844-4.8281 3.9844-11.797 0-10.609-6.4688-16.281-6.4688-5.6562-18.531-5.6562-12.047 0-18.531 5.6562-6.4688 5.6719-6.4688 16.281 0 6.9688 4 11.797 4.0156 4.8438 11.141 6.5zm-3.6094 15.578q0-5.6562 3.5312-8.8281 3.5469-3.1719 9.9375-3.1719 6.3594 0 9.9375 3.1719 3.5938 3.1719 3.5938 8.8281 0 5.6719-3.5938 8.8438-3.5781 3.1719-9.9375 3.1719-6.3906 0-9.9375-3.1719-3.5312-3.1719-3.5312-8.8438z"/></defs><g transform="translate(359.12 247.08) scale(.06 -.06)"><use xlink:href="#f"/></g></g><g clip-path="url(#a)"><defs><path id="e" d="m10.984 1.5156v8.9844q3.7188-1.7656 7.5156-2.6875 3.8125-0.92188 7.4844-0.92188 9.7656 0 14.906 6.5625 5.1562 6.5625 5.8906 19.953-2.8281-4.2031-7.1875-6.4531-4.3438-2.25-9.6094-2.25-10.938 0-17.312 6.6094-6.375 6.625-6.375 18.109 0 11.219 6.6406 18 6.6406 6.7969 17.672 6.7969 12.656 0 19.312-9.7031 6.6719-9.6875 6.6719-28.141 0-17.234-8.1875-27.516-8.1719-10.281-21.984-10.281-3.7188 0-7.5312 0.73438-3.7969 0.73438-7.9062 2.2031zm19.625 30.906q6.6406 0 10.516 4.5312 3.8906 4.5469 3.8906 12.469 0 7.8594-3.8906 12.422-3.875 4.5625-10.516 4.5625t-10.516-4.5625-3.875-12.422q0-7.9219 3.875-12.469 3.875-4.5312 10.516-4.5312z"/></defs><g transform="translate(404.66 313.24) scale(.06 -.06)"><use xlink:href="#e"/></g></g><g clip-path="url(#a)"><defs><path id="l" d="m31.781 66.406q-7.6094 0-11.453-7.5-3.8281-7.4844-3.8281-22.531 0-14.984 3.8281-22.484 3.8438-7.5 11.453-7.5 7.6719 0 11.5 7.5 3.8438 7.5 3.8438 22.484 0 15.047-3.8438 22.531-3.8281 7.5-11.5 7.5zm0 7.8125q12.266 0 18.734-9.7031 6.4688-9.6875 6.4688-28.141 0-18.406-6.4688-28.109-6.4688-9.6875-18.734-9.6875-12.25 0-18.719 9.6875-6.4688 9.7031-6.4688 28.109 0 18.453 6.4688 28.141 6.4688 9.7031 18.719 9.7031z"/></defs><g transform="translate(417 320.54) scale(.06 -.06)"><use xlink:href="#c"/><use x="63.623047" xlink:href="#l"/></g></g><g clip-path="url(#a)"><g transform="translate(48.891 200.89) scale(.06 -.06)"><use xlink:href="#c"/><use x="63.623047" xlink:href="#c"/></g></g><g clip-path="url(#a)"><g transform="translate(36.169 217.47) scale(.06 -.06)"><use xlink:href="#c"/><use x="63.623047" xlink:href="#d"/></g></g><g clip-path="url(#a)"><g transform="translate(227.59 220.61) scale(.06 -.06)"><use xlink:href="#c"/><use x="63.623047" xlink:href="#k"/></g></g><g clip-path="url(#a)"><g transform="translate(368.63 287.5) scale(.06 -.06)"><use xlink:href="#c"/><use x="63.623047" xlink:href="#j"/></g></g><g clip-path="url(#a)"><g transform="translate(408.89 100.35) scale(.06 -.06)"><use xlink:href="#c"/><use x="63.623047" xlink:href="#i"/></g></g><g clip-path="url(#a)"><g transform="translate(253.42 219.87) scale(.06 -.06)"><use xlink:href="#c"/><use x="63.623047" xlink:href="#h"/></g></g><g clip-path="url(#a)"><g transform="translate(281.08 238.18) scale(.06 -.06)"><use xlink:href="#c"/><use x="63.623047" xlink:href="#g"/></g></g><g clip-path="url(#a)"><g transform="translate(268.97 215.5) scale(.06 -.06)"><use xlink:href="#c"/><use x="63.623047" xlink:href="#f"/></g></g><g clip-path="url(#a)"><g transform="translate(342.14 258.1) scale(.06 -.06)"><use xlink:href="#c"/><use x="63.623047" xlink:href="#e"/></g></g><g clip-path="url(#a)"><g transform="translate(222.22 20.696) scale(.06 -.06)"><use xlink:href="#d"/><use x="63.623047" xlink:href="#l"/></g></g><defs><clipPath id="a"><rect width="460.8" height="345.6"/></clipPath></defs></svg>
