<svg xmlns="http://www.w3.org/2000/svg" id="reacnetgen-icon" enable-background="new 0 0 2000 2000" version="1.1" viewBox="0 0 2000 2000" xml:space="preserve"><circle cx="1161.4" cy="844.92" r="644.34" fill="none" stroke="#CC5C5C" stroke-miterlimit="10" stroke-width="80"/><path fill="#CC5C5C" stroke="#CC5C5C" stroke-miterlimit="10" stroke-width="40" d="m157.8 1848.5c-33.412-33.412-33.412-88.086 0-121.5l425.24-425.24c33.412-33.412 88.086-33.412 121.5 0s33.412 88.086 0 121.5l-425.24 425.24c-33.412 33.412-88.087 33.412-121.5 0z"/><rect width="171.82" height="82.86" x="589.34" y="1289.7" fill="#CC5C5C" stroke="#CC5C5C" stroke-miterlimit="10" stroke-width="40" transform="matrix(.7071 .7071 -.7071 .7071 1139 -87.605)"/><rect width="485.99" height="485.99" x="1025.6" y="498.3" fill="none" stroke="#CC5C5C" stroke-miterlimit="10" stroke-width="40" transform="matrix(-.375 -.927 .927 -.375 1057.1 2195.3)"/><line x1="952.23" x2="1585" y1="607.15" y2="875.45" fill="none" stroke="#CC5C5C" stroke-miterlimit="10" stroke-width="40"/><line x1="1134.5" x2="1402.8" y1="1057.7" y2="424.91" fill="none" stroke="#CC5C5C" stroke-miterlimit="10" stroke-width="40"/><line x1="1134.5" x2="815.89" y1="1057.7" y2="1186.5" fill="none" stroke="#CC5C5C" stroke-miterlimit="10" stroke-width="40"/><circle cx="952.23" cy="607.15" r="85.912" fill="#CC5C5C"/><circle cx="1585" cy="875.45" r="85.912" fill="#CC5C5C"/><circle cx="1134.5" cy="1057.7" r="85.912" fill="#CC5C5C"/><circle cx="816.47" cy="1186.3" r="85.912" fill="#CC5C5C"/><circle cx="1402.8" cy="424.91" r="85.912" fill="#CC5C5C"/></svg>